<svg width="180" height="53" viewBox="0 0 180 53" fill="none" xmlns="http://www.w3.org/2000/svg">
<path d="M3.03612 0L7.8072 11.4653H1.73491L3.68672 16.549H16.0482L3.03612 0Z" fill="#FCDC49"/>
<path d="M19.1927 41.751L17.1325 36.6673H14.3132L8.4578 22.498H5.96383L11.8192 36.6673H4.66262L17.8915 53.1082L13.1205 41.751H19.1927Z" fill="#FCDC49"/>
<path d="M20.8192 21.5245C20.9277 21.5245 21.3614 21.3081 21.3614 19.5775C21.3614 17.8469 21.0361 17.6306 20.8192 17.6306H12.3614L13.9879 21.5245H20.8192Z" fill="black"/>
<path fill-rule="evenodd" clip-rule="evenodd" d="M28.5181 17.7388H35.5662C39.3614 17.7388 41.9638 19.4694 42.0723 23.5796C42.0723 27.6898 39.7952 29.4204 35.7831 29.4204H33.2891V35.4775H28.5181V17.7388ZM33.3976 25.9592H33.9397C35.5662 25.9592 37.3012 25.9592 37.1928 23.7959C37.1928 21.6326 35.6747 21.6326 33.9397 21.6326H33.3976V25.9592Z" fill="black"/>
<path fill-rule="evenodd" clip-rule="evenodd" d="M48.9036 17.7388H53.6747L60.3976 35.3694H55.5181L54.3253 32.3408H48.0361L46.8434 35.3694H41.9638L48.9036 17.7388ZM51.1807 23.3633L49.3373 28.9877H53.0241L51.1807 23.3633Z" fill="black"/>
<path d="M125.133 28.5551H129.904V24.6612H125.133V21.6326H131.639V17.7388H120.361V35.4775H131.639V31.151H125.133V28.5551Z" fill="black"/>
<path d="M87.9397 22.498H83.6024V17.7388H96.9398V22.498H92.6024V35.4775H87.9397V22.498Z" fill="black"/>
<path d="M111.687 24.6612H105.181V17.7388H100.41V35.4775H105.181V28.5551H111.687V35.4775H116.458V17.7388H111.687V24.6612Z" fill="black"/>
<path fill-rule="evenodd" clip-rule="evenodd" d="M134.133 26.6082C134.133 21.7408 138.145 17.7388 143.024 17.7388C147.904 17.7388 151.916 21.7408 151.916 26.6082C151.916 31.4755 147.904 35.4775 143.024 35.4775C138.145 35.4775 134.133 31.4755 134.133 26.6082ZM147.145 26.6082C147.145 24.3367 145.301 22.498 143.024 22.498C140.747 22.498 138.904 24.3367 138.904 26.6082C138.904 28.8796 140.747 30.7184 143.024 30.7184C145.301 30.7184 147.145 28.8796 147.145 26.6082Z" fill="black"/>
<path d="M167.53 27.6898L159.831 17.7388H155.386V35.4775H160.157V25.5265L167.422 35.4775H172.301V17.7388H167.53V27.6898Z" fill="black"/>
<path d="M67.6626 17.7388L75.3614 27.6898V17.7388H80.1325V35.4775H75.253L67.9879 25.5265V35.4775H63.2169V17.7388H67.6626Z" fill="black"/>
<path d="M21.4698 26.1755H15.8313L14.2048 22.2816H21.4698C21.6867 22.2816 22.012 22.4979 22.012 24.2286C22.012 25.9592 21.5783 26.1755 21.4698 26.1755Z" fill="black"/>
<path d="M13.1205 31.5837L14.747 35.4775H20.8192C20.9277 35.4775 21.3614 35.2612 21.3614 33.5306C21.2801 32.2326 21.0768 31.7865 20.9345 31.6445C20.887 31.5972 20.8464 31.5837 20.8192 31.5837H13.1205Z" fill="black"/>
<path d="M12.9036 30.8265L11.2771 26.9326H21.5783C21.6867 26.9326 22.012 27.149 22.1205 28.8796C22.1205 30.6102 21.6867 30.8265 21.5783 30.8265H12.9036Z" fill="black"/>
<path d="M6.506 26.2837L4.66262 21.6326H8.89154L10.8433 26.2837H14.8554L11.2771 17.7388H2.49395C1.84334 17.7388 1.40961 17.7388 1.08431 18.7122C0.759007 19.902 0.650574 22.1735 0.650574 26.6082C0.650574 31.0428 0.650574 33.3143 1.08431 34.5041C1.40961 35.4775 1.73491 35.4775 2.49395 35.4775H10.1927L6.506 26.2837Z" fill="black"/>
<path d="M175.12 18.0633H175.663V19.7939H176.205V18.0633H176.747V17.7388H175.12V18.0633Z" fill="black"/>
<path d="M177.398 18.1714L177.94 19.7939H178.373L178.916 18.1714V19.7939H179.349V17.7388H178.699L178.157 19.3612L177.614 17.7388H176.964V19.7939H177.398V18.1714Z" fill="black"/>
</svg>
