<svg xmlns="http://www.w3.org/2000/svg" xmlns:xlink="http://www.w3.org/1999/xlink" width="500" zoomAndPan="magnify" viewBox="0 0 375 374.999991" height="500" preserveAspectRatio="xMidYMid meet" version="1.0"><defs><filter x="0%" y="0%" width="100%" height="100%" id="f1658e8fbb"><feColorMatrix values="0 0 0 0 1 0 0 0 0 1 0 0 0 0 1 0 0 0 1 0" color-interpolation-filters="sRGB"/></filter><g/><clipPath id="883c93634a"><path d="M 15 105 L 192 105 L 192 215.992188 L 15 215.992188 Z M 15 105 " clip-rule="nonzero"/></clipPath><clipPath id="5339b421ef"><path d="M 184 105 L 361 105 L 361 215.992188 L 184 215.992188 Z M 184 105 " clip-rule="nonzero"/></clipPath><mask id="db16d371da"><g filter="url(#f1658e8fbb)"><rect x="-37.5" width="450" fill="#000000" y="-37.499999" height="449.999989" fill-opacity="0.3"/></g></mask><clipPath id="6eb93766da"><path d="M 1 0.640625 L 107 0.640625 L 107 168 L 1 168 Z M 1 0.640625 " clip-rule="nonzero"/></clipPath><clipPath id="9b5811255e"><rect x="0" width="108" y="0" height="169"/></clipPath><mask id="16c85474b6"><g filter="url(#f1658e8fbb)"><rect x="-37.5" width="450" fill="#000000" y="-37.499999" height="449.999989" fill-opacity="0.3"/></g></mask><clipPath id="81243b4f8d"><path d="M 0.679688 0.640625 L 107 0.640625 L 107 168 L 0.679688 168 Z M 0.679688 0.640625 " clip-rule="nonzero"/></clipPath><clipPath id="40b9571e63"><rect x="0" width="107" y="0" height="169"/></clipPath><clipPath id="2eff298761"><path d="M 144 14.242188 L 232 14.242188 L 232 215.992188 L 144 215.992188 Z M 144 14.242188 " clip-rule="nonzero"/></clipPath><clipPath id="45d0d1269c"><path d="M 172 131.453125 L 203 131.453125 L 203 190 L 172 190 Z M 172 131.453125 " clip-rule="nonzero"/></clipPath><clipPath id="69558f0ff5"><path d="M 112.5 201 L 262.5 201 L 262.5 227 L 112.5 227 Z M 112.5 201 " clip-rule="nonzero"/></clipPath></defs><path fill="#0e00ad" d="M 139.585938 28.957031 C 139.585938 28.957031 84.34375 152.046875 182.167969 202.53125 C 245.019531 110.4375 139.582031 28.957031 139.582031 28.957031 Z M 139.585938 28.957031 " fill-opacity="1" fill-rule="nonzero"/><path fill="#0e00ad" d="M 239.949219 28.957031 C 239.949219 28.957031 295.1875 152.046875 197.363281 202.53125 C 134.511719 110.4375 239.949219 28.957031 239.949219 28.957031 Z M 239.949219 28.957031 " fill-opacity="1" fill-rule="nonzero"/><path fill="#ffffff" d="M 136.691406 27.183594 C 132.6875 36.125 129.753906 45.617188 127.277344 55.074219 C 122.007812 75.210938 119.390625 96.359375 121.289062 117.144531 C 122.847656 134.230469 127.691406 150.960938 136.566406 165.714844 C 146.976562 183.011719 162.75 196.308594 180.535156 205.566406 C 182.320312 206.496094 184.230469 205.953125 185.34375 204.308594 C 202.753906 178.574219 209.84375 148.257812 203.074219 117.738281 C 197.738281 93.660156 184.605469 71.832031 168.957031 53.0625 C 160.972656 43.484375 152.097656 34.128906 142.207031 26.46875 C 138.671875 23.730469 133.660156 28.667969 137.238281 31.4375 C 146.492188 38.601562 154.777344 47.28125 162.378906 56.128906 C 178.109375 74.429688 190.871094 95.925781 196.300781 119.605469 C 202.859375 148.210938 195.527344 176.734375 179.273438 200.757812 C 180.878906 200.339844 182.480469 199.917969 184.082031 199.5 C 159.753906 186.832031 141.09375 166.734375 132.882812 140.335938 C 126.28125 119.113281 126.554688 96.15625 130.265625 74.421875 C 132.105469 63.648438 134.835938 53.015625 138.296875 42.652344 C 139.328125 39.5625 140.4375 36.496094 141.628906 33.464844 C 141.824219 32.980469 142.019531 32.492188 142.214844 32.007812 C 142.351562 31.675781 142.941406 30.273438 142.359375 31.644531 C 142.492188 31.339844 142.621094 31.03125 142.757812 30.726562 C 144.578125 26.625 138.527344 23.046875 136.671875 27.175781 Z M 136.691406 27.183594 " fill-opacity="1" fill-rule="nonzero"/><path fill="#ffffff" d="M 237.054688 30.730469 C 237.121094 30.882812 237.1875 31.039062 237.253906 31.191406 C 237.378906 31.480469 237.714844 32.28125 237.191406 31.035156 C 237.328125 31.359375 237.460938 31.683594 237.59375 32.011719 C 238.367188 33.894531 239.089844 35.800781 239.789062 37.714844 C 242.210938 44.34375 244.261719 51.105469 246.015625 57.941406 C 251.191406 78.101562 253.535156 99.152344 251.207031 119.902344 C 249.484375 135.285156 244.578125 150.300781 236.382812 163.453125 C 226.59375 179.15625 212.011719 191.023438 195.726562 199.503906 C 197.328125 199.921875 198.933594 200.34375 200.535156 200.761719 C 191.300781 187.117188 184.667969 172.082031 182.058594 155.753906 C 179.890625 142.183594 181.136719 128.195312 184.660156 114.96875 C 190.796875 91.910156 204.128906 71.128906 219.8125 53.398438 C 226.75 45.558594 234.269531 37.867188 242.570312 31.441406 C 246.148438 28.671875 241.136719 23.734375 237.601562 26.472656 C 228.351562 33.636719 220.066406 42.320312 212.464844 51.164062 C 196.636719 69.582031 183.605469 90.980469 177.480469 114.640625 C 169.378906 145.9375 176.511719 177.765625 194.46875 204.308594 C 195.582031 205.953125 197.488281 206.5 199.277344 205.570312 C 223.859375 192.765625 243.003906 172.558594 252.355469 146.300781 C 260.054688 124.683594 260.394531 101.097656 257.265625 78.589844 C 254.839844 61.144531 250.347656 43.316406 243.121094 27.183594 C 241.273438 23.058594 235.214844 26.636719 237.058594 30.734375 Z M 237.054688 30.730469 " fill-opacity="1" fill-rule="nonzero"/><path fill="#0e00ad" d="M 18.714844 110.988281 C 18.714844 110.988281 75.8125 245.546875 187.984375 205.011719 C 161.113281 87.253906 18.714844 110.988281 18.714844 110.988281 Z M 18.714844 110.988281 " fill-opacity="1" fill-rule="nonzero"/><path fill="#0e00ad" d="M 357.25 110.988281 C 357.25 110.988281 300.152344 245.546875 187.980469 205.011719 C 214.851562 87.253906 357.25 110.988281 357.25 110.988281 Z M 357.25 110.988281 " fill-opacity="1" fill-rule="nonzero"/><g clip-path="url(#883c93634a)"><path fill="#ffffff" d="M 15.679688 112.765625 C 19.0625 120.71875 23.402344 128.339844 27.886719 135.707031 C 38 152.316406 50.136719 167.886719 64.421875 181.117188 C 79.480469 195.066406 97.246094 206.21875 117.042969 211.972656 C 140.730469 218.855469 165.875 216.648438 188.914062 208.410156 C 190.773438 207.746094 191.824219 206.0625 191.367188 204.089844 C 185.515625 178.792969 172.992188 155.429688 153.070312 138.492188 C 136.503906 124.40625 116.144531 115.5625 95.09375 110.660156 C 70.289062 104.882812 43.019531 103.441406 17.78125 107.605469 C 13.316406 108.347656 15.214844 115.117188 19.648438 114.382812 C 20.195312 114.289062 20.742188 114.214844 21.292969 114.136719 C 22.070312 114.03125 20.277344 114.269531 21.378906 114.128906 C 21.730469 114.082031 22.085938 114.039062 22.4375 113.996094 C 23.382812 113.878906 24.332031 113.777344 25.277344 113.675781 C 30.945312 113.082031 36.636719 112.753906 42.332031 112.613281 C 60.015625 112.175781 77.789062 113.722656 95.003906 117.859375 C 114.480469 122.539062 133.277344 130.855469 148.621094 143.902344 C 167.472656 159.929688 179.066406 182.0625 184.59375 205.957031 C 185.410156 204.515625 186.230469 203.074219 187.046875 201.636719 C 161.671875 210.710938 134.792969 211.78125 109.46875 202.007812 C 88.707031 193.996094 71.015625 179.34375 56.398438 162.835938 C 42.476562 147.105469 30.003906 128.640625 21.746094 109.222656 C 19.988281 105.0625 13.9375 108.644531 15.6875 112.769531 Z M 15.679688 112.765625 " fill-opacity="1" fill-rule="nonzero"/></g><g clip-path="url(#5339b421ef)"><path fill="#ffffff" d="M 354.214844 109.21875 C 350.835938 117.167969 346.492188 124.789062 342.007812 132.15625 C 331.964844 148.660156 319.902344 164 305.605469 177.035156 C 291.476562 189.914062 274.832031 200.15625 256.359375 205.390625 C 234.003906 211.726562 210.601562 209.386719 188.914062 201.632812 C 189.734375 203.070312 190.550781 204.511719 191.371094 205.953125 C 197.191406 180.78125 209.71875 158.089844 229.953125 141.734375 C 246.445312 128.398438 266.855469 120.617188 287.460938 116.410156 C 303.300781 113.171875 319.578125 112.152344 335.71875 112.667969 C 340.878906 112.832031 346.035156 113.179688 351.167969 113.722656 C 352.015625 113.8125 352.867188 113.910156 353.710938 114.015625 C 354.054688 114.054688 354.398438 114.097656 354.742188 114.144531 C 355.621094 114.257812 353.789062 114.011719 354.796875 114.152344 C 355.304688 114.222656 355.808594 114.292969 356.316406 114.378906 C 360.746094 115.113281 362.644531 108.34375 358.183594 107.601562 C 333.109375 103.4375 306.136719 104.953125 281.464844 110.519531 C 260.347656 115.28125 240.140625 124.179688 223.414062 138.050781 C 203.394531 154.648438 190.761719 178.121094 184.800781 203.191406 C 184.734375 203.492188 184.664062 203.789062 184.59375 204.085938 C 184.140625 206.058594 185.1875 207.742188 187.050781 208.40625 C 212.519531 217.515625 240.050781 218.925781 265.714844 209.773438 C 287.15625 202.125 305.734375 188.054688 321.15625 171.53125 C 336.984375 154.566406 351.164062 134.21875 360.285156 112.761719 C 362.035156 108.652344 355.984375 105.070312 354.214844 109.226562 Z M 354.214844 109.21875 " fill-opacity="1" fill-rule="nonzero"/></g><path fill="#0e00ad" d="M 90.316406 38.851562 C 90.316406 38.851562 71.410156 183.792969 188.65625 205.652344 C 225.121094 90.492188 90.316406 38.851562 90.316406 38.851562 Z M 90.316406 38.851562 " fill-opacity="1" fill-rule="nonzero"/><path fill="#0e00ad" d="M 286.511719 38.851562 C 286.511719 38.851562 305.417969 183.792969 188.171875 205.652344 C 151.699219 90.492188 286.511719 38.851562 286.511719 38.851562 Z M 286.511719 38.851562 " fill-opacity="1" fill-rule="nonzero"/><g mask="url(#db16d371da)"><g transform="matrix(1, 0, 0, 1, 88, 38)"><g clip-path="url(#9b5811255e)"><g clip-path="url(#6eb93766da)"><path fill="#ff006b" d="M 2.316406 0.851562 C 2.316406 0.851562 -16.589844 145.792969 100.65625 167.652344 C 137.121094 52.492188 2.316406 0.851562 2.316406 0.851562 Z M 2.316406 0.851562 " fill-opacity="1" fill-rule="nonzero"/></g></g></g></g><g mask="url(#16c85474b6)"><g transform="matrix(1, 0, 0, 1, 181, 38)"><g clip-path="url(#40b9571e63)"><g clip-path="url(#81243b4f8d)"><path fill="#ff006b" d="M 105.511719 0.851562 C 105.511719 0.851562 124.417969 145.792969 7.171875 167.652344 C -29.300781 52.492188 105.511719 0.851562 105.511719 0.851562 Z M 105.511719 0.851562 " fill-opacity="1" fill-rule="nonzero"/></g></g></g></g><path fill="#ffffff" d="M 86.804688 39.808594 C 83.558594 64.8125 85.976562 91.628906 92.132812 115.945312 C 97.398438 136.769531 106.601562 156.703125 120.679688 173.050781 C 137.277344 192.320312 160.398438 204.320312 185.09375 209.480469 C 185.96875 209.664062 186.84375 209.828125 187.722656 209.996094 C 189.65625 210.363281 191.4375 209.480469 192.042969 207.542969 C 200.101562 181.8125 200.855469 154.300781 191.269531 128.875 C 183.335938 107.839844 169.253906 89.703125 152.632812 74.777344 C 134.898438 58.855469 113.601562 45 91.25 36.417969 C 87.011719 34.789062 85.195312 41.585938 89.382812 43.191406 C 89.945312 43.410156 90.5 43.640625 91.054688 43.871094 C 91.777344 44.171875 90.207031 43.507812 91.242188 43.949219 C 91.59375 44.101562 91.945312 44.253906 92.300781 44.40625 C 93.242188 44.820312 94.183594 45.242188 95.121094 45.671875 C 100.691406 48.226562 106.136719 51.050781 111.46875 54.066406 C 127.875 63.328125 143.203125 74.589844 156.375 88.097656 C 169.832031 101.894531 180.707031 118.324219 186.585938 136.765625 C 193.78125 159.335938 192.285156 183.261719 185.265625 205.671875 L 189.589844 203.21875 C 164.621094 198.484375 141.914062 186.96875 125.210938 167.574219 C 111.421875 151.5625 103.050781 131.519531 98.183594 111.140625 C 92.722656 88.289062 90.789062 63.210938 93.828125 39.804688 C 94.417969 35.324219 87.386719 35.378906 86.808594 39.808594 Z M 86.804688 39.808594 " fill-opacity="1" fill-rule="nonzero"/><path fill="#ffffff" d="M 282.996094 39.808594 C 286.214844 64.609375 283.886719 91.167969 277.617188 115.257812 C 272.507812 134.886719 263.796875 153.804688 250.292969 169.09375 C 233.871094 187.691406 211.394531 198.644531 187.238281 203.222656 C 188.675781 204.042969 190.117188 204.859375 191.558594 205.679688 C 183.535156 180.0625 183.183594 153.1875 193.363281 128.136719 C 201.625 107.808594 216.339844 90.582031 232.902344 76.492188 C 244.363281 66.742188 257.058594 58.4375 270.3125 51.34375 C 274.5 49.101562 278.761719 46.992188 283.09375 45.046875 C 283.8125 44.722656 284.527344 44.410156 285.25 44.097656 C 286.617188 43.507812 284.960938 44.207031 286.140625 43.722656 C 286.574219 43.542969 287.007812 43.363281 287.445312 43.195312 C 291.628906 41.589844 289.8125 34.792969 285.578125 36.421875 C 260.347656 46.105469 236.363281 62.339844 217.289062 81.300781 C 202.484375 96.019531 190.527344 113.664062 183.898438 133.546875 C 175.882812 157.605469 177.269531 183.554688 184.785156 207.546875 C 185.390625 209.484375 187.171875 210.367188 189.105469 210 C 214.214844 205.238281 237.542969 193.632812 254.816406 174.5625 C 269.335938 158.527344 278.683594 138.472656 284.238281 117.710938 C 288.882812 100.34375 290.929688 82.242188 291.136719 64.285156 C 291.226562 56.15625 291.050781 47.914062 290.027344 39.835938 C 290.027344 39.828125 290.023438 39.820312 290.023438 39.808594 C 289.453125 35.386719 282.421875 35.332031 283.003906 39.816406 Z M 282.996094 39.808594 " fill-opacity="1" fill-rule="nonzero"/><path fill="#0e00ad" d="M 188.410156 15.726562 C 188.410156 15.726562 98.507812 130.988281 188.410156 209.359375 C 278.3125 128.683594 188.410156 15.726562 188.410156 15.726562 Z M 188.410156 15.726562 " fill-opacity="1" fill-rule="nonzero"/><g clip-path="url(#2eff298761)"><path fill="#ffffff" d="M 185.929688 15.472656 C 178.585938 24.90625 172.433594 35.375 166.933594 45.960938 C 155.460938 68.03125 147.238281 92.089844 145.304688 116.996094 C 144.015625 133.589844 146.074219 150.488281 151.855469 166.121094 C 158.773438 184.835938 171.019531 200.96875 185.929688 214.070312 C 187.421875 215.382812 189.410156 215.417969 190.898438 214.070312 C 215.050781 192.226562 230.304688 163.304688 231.777344 130.558594 C 232.957031 104.4375 225.519531 78.511719 214.613281 55.011719 C 208.1875 41.167969 200.421875 27.457031 190.898438 15.46875 C 188.078125 11.921875 183.140625 16.929688 185.929688 20.4375 C 186.484375 21.136719 185.433594 19.785156 185.835938 20.316406 C 186.273438 20.886719 186.703125 21.460938 187.128906 22.039062 C 188.640625 24.09375 190.09375 26.1875 191.515625 28.304688 C 196.378906 35.550781 200.78125 43.105469 204.777344 50.859375 C 216.265625 73.148438 224.242188 97.8125 224.832031 123.027344 C 225.175781 137.800781 222.59375 152.4375 217.125 166.171875 C 210.496094 182.8125 199.121094 197.171875 185.929688 209.101562 L 190.898438 209.101562 C 178.175781 197.921875 167.636719 184.710938 160.65625 169.222656 C 154.789062 156.207031 152.152344 141.871094 151.976562 127.652344 C 151.664062 102.308594 159.4375 77.261719 170.417969 54.640625 C 174.609375 46.003906 179.359375 37.632812 184.582031 29.578125 C 186.160156 27.140625 187.792969 24.742188 189.480469 22.382812 C 189.933594 21.753906 190.394531 21.125 190.859375 20.503906 C 191.121094 20.148438 191.976562 19.050781 190.898438 20.4375 C 193.644531 16.90625 188.714844 11.898438 185.929688 15.46875 Z M 185.929688 15.472656 " fill-opacity="1" fill-rule="nonzero"/></g><g clip-path="url(#45d0d1269c)"><path fill="#560099" d="M 202.863281 165.515625 L 187.519531 189.945312 L 172.175781 165.515625 C 172.175781 165.515625 173.320312 143.289062 187.519531 131.46875 C 201.71875 143.289062 202.863281 165.515625 202.863281 165.515625 Z M 202.863281 165.515625 " fill-opacity="1" fill-rule="nonzero"/></g><path fill="#6500b4" d="M 187.519531 217.980469 C 187.519531 217.980469 187.511719 217.957031 187.503906 217.925781 C 187.492188 217.957031 187.488281 217.980469 187.488281 217.980469 C 141.664062 185.429688 168.28125 140.59375 168.28125 140.59375 C 179.328125 154.246094 184.898438 168.140625 187.507812 180.328125 C 190.113281 168.144531 195.683594 154.246094 206.730469 140.59375 C 206.726562 140.59375 233.34375 185.429688 187.519531 217.980469 Z M 187.519531 217.980469 " fill-opacity="1" fill-rule="nonzero"/><path fill="#751bbb" d="M 187.492188 217.980469 C 123.144531 217.980469 139.117188 154.820312 139.117188 154.820312 C 181.007812 185.253906 187.492188 217.980469 187.492188 217.980469 Z M 187.519531 217.980469 C 251.859375 217.980469 235.890625 154.820312 235.890625 154.820312 C 194 185.253906 187.519531 217.980469 187.519531 217.980469 Z M 187.519531 217.980469 " fill-opacity="1" fill-rule="nonzero"/><g clip-path="url(#69558f0ff5)"><path fill="#8628cf" d="M 112.5 205.609375 C 156.242188 192.164062 187.492188 217.980469 187.492188 217.980469 C 151.152344 243.523438 112.5 205.609375 112.5 205.609375 Z M 262.507812 205.609375 C 218.765625 192.164062 187.519531 217.980469 187.519531 217.980469 C 223.859375 243.523438 262.507812 205.609375 262.507812 205.609375 Z M 262.507812 205.609375 " fill-opacity="1" fill-rule="nonzero"/></g><g fill="#041f60" fill-opacity="1"><g transform="translate(128.267179, 294.324077)"><g><path d="M 36.078125 -54.3125 L 33.765625 -51.359375 C 32.796875 -51.890625 31.882812 -52.367188 31.03125 -52.796875 C 30.1875 -53.222656 29.320312 -53.566406 28.4375 -53.828125 C 27.5625 -54.097656 26.628906 -54.300781 25.640625 -54.4375 C 24.648438 -54.570312 23.515625 -54.640625 22.234375 -54.640625 C 19.617188 -54.640625 17.285156 -54.210938 15.234375 -53.359375 C 13.179688 -52.503906 11.4375 -51.359375 10 -49.921875 C 8.5625 -48.484375 7.46875 -46.828125 6.71875 -44.953125 C 5.96875 -43.085938 5.59375 -41.117188 5.59375 -39.046875 C 5.59375 -36.210938 6.457031 -33.625 8.1875 -31.28125 C 9.925781 -28.9375 12.632812 -27.148438 16.3125 -25.921875 C 18.070312 -25.335938 19.566406 -24.859375 20.796875 -24.484375 C 22.023438 -24.109375 23.171875 -23.742188 24.234375 -23.390625 C 25.304688 -23.046875 26.390625 -22.675781 27.484375 -22.28125 C 28.578125 -21.882812 29.84375 -21.335938 31.28125 -20.640625 C 33.09375 -19.785156 34.316406 -18.597656 34.953125 -17.078125 C 35.597656 -15.554688 35.921875 -14.023438 35.921875 -12.484375 C 35.921875 -10.554688 35.546875 -8.804688 34.796875 -7.234375 C 34.054688 -5.660156 33.070312 -4.34375 31.84375 -3.28125 C 30.613281 -2.21875 29.195312 -1.390625 27.59375 -0.796875 C 26 -0.210938 24.375 0.078125 22.71875 0.078125 C 20.800781 0.078125 18.960938 -0.253906 17.203125 -0.921875 C 15.441406 -1.585938 13.8125 -2.53125 12.3125 -3.75 C 10.820312 -4.976562 9.53125 -6.5 8.4375 -8.3125 C 7.34375 -10.132812 6.503906 -12.164062 5.921875 -14.40625 C 5.765625 -15.09375 5.472656 -15.4375 5.046875 -15.4375 C 4.671875 -15.4375 4.484375 -15.0625 4.484375 -14.3125 L 4.484375 0 C 4.484375 0.695312 4.722656 1.046875 5.203125 1.046875 C 5.523438 1.046875 5.867188 0.773438 6.234375 0.234375 L 9.125 -3.921875 C 9.757812 -3.335938 10.539062 -2.722656 11.46875 -2.078125 C 12.40625 -1.441406 13.445312 -0.851562 14.59375 -0.3125 C 15.738281 0.21875 16.960938 0.65625 18.265625 1 C 19.578125 1.34375 20.925781 1.515625 22.3125 1.515625 C 24.875 1.515625 27.25 1.046875 29.4375 0.109375 C 31.625 -0.816406 33.515625 -2.101562 35.109375 -3.75 C 36.710938 -5.40625 37.976562 -7.367188 38.90625 -9.640625 C 39.84375 -11.910156 40.3125 -14.347656 40.3125 -16.953125 C 40.3125 -20.523438 39.472656 -23.550781 37.796875 -26.03125 C 36.117188 -28.519531 33.46875 -30.296875 29.84375 -31.359375 C 28.613281 -31.734375 27.460938 -32.050781 26.390625 -32.3125 C 25.328125 -32.582031 24.234375 -32.878906 23.109375 -33.203125 C 21.992188 -33.523438 20.820312 -33.882812 19.59375 -34.28125 C 18.375 -34.675781 17.015625 -35.171875 15.515625 -35.765625 C 13.867188 -36.398438 12.617188 -37.382812 11.765625 -38.71875 C 10.910156 -40.050781 10.484375 -41.597656 10.484375 -43.359375 C 10.484375 -45.015625 10.828125 -46.46875 11.515625 -47.71875 C 12.210938 -48.96875 13.109375 -49.992188 14.203125 -50.796875 C 15.296875 -51.597656 16.546875 -52.195312 17.953125 -52.59375 C 19.367188 -53 20.796875 -53.203125 22.234375 -53.203125 C 24.421875 -53.203125 26.34375 -52.828125 28 -52.078125 C 29.65625 -51.328125 31.039062 -50.335938 32.15625 -49.109375 C 33.28125 -47.890625 34.175781 -46.476562 34.84375 -44.875 C 35.507812 -43.28125 35.945312 -41.628906 36.15625 -39.921875 C 36.207031 -39.390625 36.445312 -39.125 36.875 -39.125 C 37.25 -39.125 37.4375 -39.390625 37.4375 -39.921875 L 37.4375 -54.15625 C 37.4375 -54.6875 37.273438 -54.953125 36.953125 -54.953125 C 36.691406 -54.953125 36.398438 -54.738281 36.078125 -54.3125 Z M 36.078125 -54.3125 "/></g></g></g><g fill="#041f60" fill-opacity="1"><g transform="translate(168.422961, 294.324077)"><g><path d="M 28.484375 -53.765625 L 7.359375 -53.765625 L 7.359375 -52.484375 L 14.71875 -52.484375 L 14.71875 -1.4375 C 14.71875 1.4375 14.316406 3.5 13.515625 4.75 C 12.710938 6.007812 11.300781 6.640625 9.28125 6.640625 C 8.21875 6.640625 7.226562 6.4375 6.3125 6.03125 C 5.40625 5.632812 4.6875 5.09375 4.15625 4.40625 C 5.4375 4.40625 6.394531 4.015625 7.03125 3.234375 C 7.675781 2.460938 8 1.488281 8 0.3125 C 8 -0.59375 7.703125 -1.40625 7.109375 -2.125 C 6.523438 -2.84375 5.675781 -3.203125 4.5625 -3.203125 C 3.332031 -3.203125 2.421875 -2.8125 1.828125 -2.03125 C 1.242188 -1.257812 0.953125 -0.265625 0.953125 0.953125 C 0.953125 1.703125 1.140625 2.488281 1.515625 3.3125 C 1.890625 4.144531 2.445312 4.90625 3.1875 5.59375 C 3.9375 6.289062 4.859375 6.878906 5.953125 7.359375 C 7.046875 7.835938 8.316406 8.078125 9.765625 8.078125 C 18.242188 8.078125 22.484375 3.890625 22.484375 -4.484375 L 22.484375 -52.484375 L 28.484375 -52.484375 Z M 28.484375 -53.765625 "/></g></g></g><g fill="#041f60" fill-opacity="1"><g transform="translate(194.820073, 294.324077)"><g><path d="M 1.765625 -1.28125 L 1.765625 0 L 19.515625 0 L 19.515625 -1.28125 L 10.078125 -1.28125 L 15.125 -16.71875 L 31.203125 -16.71875 L 36.40625 -1.28125 L 28.15625 -1.28125 L 28.15625 0 L 51.59375 0 L 51.59375 -1.28125 L 44.640625 -1.28125 L 27.125 -54.484375 L 26.15625 -54.484375 L 8.640625 -1.28125 Z M 23.125 -40.875 L 30.796875 -18 L 15.59375 -18 Z M 23.125 -40.875 "/></g></g></g><g fill="#041f60" fill-opacity="1"><g transform="translate(84.224332, 346.567213)"><g><path d="M 11.515625 0.171875 C 9.609375 0.171875 7.882812 -0.25 6.34375 -1.09375 C 4.8125 -1.945312 3.609375 -3.117188 2.734375 -4.609375 C 1.867188 -6.109375 1.4375 -7.785156 1.4375 -9.640625 C 1.4375 -11.503906 1.867188 -13.179688 2.734375 -14.671875 C 3.609375 -16.171875 4.816406 -17.34375 6.359375 -18.1875 C 7.910156 -19.03125 9.640625 -19.453125 11.546875 -19.453125 C 12.984375 -19.453125 14.304688 -19.210938 15.515625 -18.734375 C 16.734375 -18.265625 17.765625 -17.566406 18.609375 -16.640625 L 17.3125 -15.359375 C 15.800781 -16.878906 13.898438 -17.640625 11.609375 -17.640625 C 10.078125 -17.640625 8.6875 -17.289062 7.4375 -16.59375 C 6.1875 -15.894531 5.207031 -14.9375 4.5 -13.71875 C 3.800781 -12.507812 3.453125 -11.148438 3.453125 -9.640625 C 3.453125 -8.140625 3.800781 -6.78125 4.5 -5.5625 C 5.207031 -4.351562 6.1875 -3.398438 7.4375 -2.703125 C 8.6875 -2.003906 10.078125 -1.65625 11.609375 -1.65625 C 13.921875 -1.65625 15.820312 -2.425781 17.3125 -3.96875 L 18.609375 -2.671875 C 17.765625 -1.753906 16.726562 -1.050781 15.5 -0.5625 C 14.28125 -0.0703125 12.953125 0.171875 11.515625 0.171875 Z M 11.515625 0.171875 "/></g></g></g><g fill="#041f60" fill-opacity="1"><g transform="translate(105.144558, 346.567213)"><g><path d="M 11.578125 0.171875 C 9.660156 0.171875 7.925781 -0.253906 6.375 -1.109375 C 4.820312 -1.960938 3.609375 -3.132812 2.734375 -4.625 C 1.867188 -6.113281 1.4375 -7.785156 1.4375 -9.640625 C 1.4375 -11.503906 1.867188 -13.175781 2.734375 -14.65625 C 3.609375 -16.144531 4.820312 -17.316406 6.375 -18.171875 C 7.925781 -19.023438 9.660156 -19.453125 11.578125 -19.453125 C 13.484375 -19.453125 15.203125 -19.03125 16.734375 -18.1875 C 18.273438 -17.34375 19.484375 -16.171875 20.359375 -14.671875 C 21.242188 -13.179688 21.6875 -11.503906 21.6875 -9.640625 C 21.6875 -7.785156 21.242188 -6.109375 20.359375 -4.609375 C 19.484375 -3.117188 18.273438 -1.945312 16.734375 -1.09375 C 15.203125 -0.25 13.484375 0.171875 11.578125 0.171875 Z M 11.578125 -1.65625 C 13.097656 -1.65625 14.472656 -2 15.703125 -2.6875 C 16.941406 -3.375 17.910156 -4.328125 18.609375 -5.546875 C 19.304688 -6.773438 19.65625 -8.140625 19.65625 -9.640625 C 19.65625 -11.148438 19.304688 -12.515625 18.609375 -13.734375 C 17.910156 -14.960938 16.941406 -15.921875 15.703125 -16.609375 C 14.472656 -17.296875 13.097656 -17.640625 11.578125 -17.640625 C 10.046875 -17.640625 8.660156 -17.296875 7.421875 -16.609375 C 6.179688 -15.921875 5.207031 -14.960938 4.5 -13.734375 C 3.800781 -12.515625 3.453125 -11.148438 3.453125 -9.640625 C 3.453125 -8.140625 3.800781 -6.773438 4.5 -5.546875 C 5.207031 -4.328125 6.179688 -3.375 7.421875 -2.6875 C 8.660156 -2 10.046875 -1.65625 11.578125 -1.65625 Z M 11.578125 -1.65625 "/></g></g></g><g fill="#041f60" fill-opacity="1"><g transform="translate(129.372288, 346.567213)"><g><path d="M 19.265625 -19.296875 L 19.265625 0 L 17.578125 0 L 5.1875 -15.65625 L 5.1875 0 L 3.140625 0 L 3.140625 -19.296875 L 4.828125 -19.296875 L 17.25 -3.640625 L 17.25 -19.296875 Z M 19.265625 -19.296875 "/></g></g></g><g fill="#041f60" fill-opacity="1"><g transform="translate(152.883389, 346.567213)"><g><path d="M 8.46875 0.171875 C 7.03125 0.171875 5.65625 -0.0546875 4.34375 -0.515625 C 3.03125 -0.984375 2.015625 -1.59375 1.296875 -2.34375 L 2.09375 -3.90625 C 2.789062 -3.207031 3.71875 -2.644531 4.875 -2.21875 C 6.03125 -1.789062 7.226562 -1.578125 8.46875 -1.578125 C 10.1875 -1.578125 11.476562 -1.890625 12.34375 -2.515625 C 13.207031 -3.148438 13.640625 -3.972656 13.640625 -4.984375 C 13.640625 -5.753906 13.40625 -6.367188 12.9375 -6.828125 C 12.46875 -7.296875 11.894531 -7.648438 11.21875 -7.890625 C 10.539062 -8.140625 9.59375 -8.410156 8.375 -8.703125 C 6.925781 -9.078125 5.769531 -9.429688 4.90625 -9.765625 C 4.039062 -10.109375 3.300781 -10.628906 2.6875 -11.328125 C 2.070312 -12.023438 1.765625 -12.972656 1.765625 -14.171875 C 1.765625 -15.140625 2.019531 -16.023438 2.53125 -16.828125 C 3.050781 -17.628906 3.84375 -18.265625 4.90625 -18.734375 C 5.96875 -19.210938 7.289062 -19.453125 8.875 -19.453125 C 9.976562 -19.453125 11.054688 -19.300781 12.109375 -19 C 13.171875 -18.695312 14.085938 -18.28125 14.859375 -17.75 L 14.171875 -16.125 C 13.359375 -16.65625 12.492188 -17.050781 11.578125 -17.3125 C 10.660156 -17.582031 9.757812 -17.71875 8.875 -17.71875 C 7.1875 -17.71875 5.914062 -17.390625 5.0625 -16.734375 C 4.207031 -16.085938 3.78125 -15.25 3.78125 -14.21875 C 3.78125 -13.445312 4.015625 -12.828125 4.484375 -12.359375 C 4.953125 -11.890625 5.535156 -11.53125 6.234375 -11.28125 C 6.941406 -11.039062 7.894531 -10.769531 9.09375 -10.46875 C 10.507812 -10.125 11.65625 -9.78125 12.53125 -9.4375 C 13.40625 -9.101562 14.144531 -8.585938 14.75 -7.890625 C 15.351562 -7.203125 15.65625 -6.269531 15.65625 -5.09375 C 15.65625 -4.125 15.390625 -3.238281 14.859375 -2.4375 C 14.335938 -1.632812 13.535156 -1 12.453125 -0.53125 C 11.367188 -0.0625 10.039062 0.171875 8.46875 0.171875 Z M 8.46875 0.171875 "/></g></g></g><g fill="#041f60" fill-opacity="1"><g transform="translate(170.937112, 346.567213)"><g><path d="M 10.921875 0.171875 C 8.421875 0.171875 6.472656 -0.546875 5.078125 -1.984375 C 3.679688 -3.421875 2.984375 -5.503906 2.984375 -8.234375 L 2.984375 -19.296875 L 5.015625 -19.296875 L 5.015625 -8.328125 C 5.015625 -6.085938 5.519531 -4.414062 6.53125 -3.3125 C 7.539062 -2.207031 9.003906 -1.65625 10.921875 -1.65625 C 12.847656 -1.65625 14.316406 -2.207031 15.328125 -3.3125 C 16.335938 -4.414062 16.84375 -6.085938 16.84375 -8.328125 L 16.84375 -19.296875 L 18.828125 -19.296875 L 18.828125 -8.234375 C 18.828125 -5.503906 18.128906 -3.421875 16.734375 -1.984375 C 15.347656 -0.546875 13.410156 0.171875 10.921875 0.171875 Z M 10.921875 0.171875 "/></g></g></g><g fill="#041f60" fill-opacity="1"><g transform="translate(193.869399, 346.567213)"><g><path d="M 3.140625 -19.296875 L 5.1875 -19.296875 L 5.1875 -1.765625 L 15.984375 -1.765625 L 15.984375 0 L 3.140625 0 Z M 3.140625 -19.296875 "/></g></g></g><g fill="#041f60" fill-opacity="1"><g transform="translate(211.206487, 346.567213)"><g><path d="M 6.890625 -17.53125 L 0.109375 -17.53125 L 0.109375 -19.296875 L 15.703125 -19.296875 L 15.703125 -17.53125 L 8.9375 -17.53125 L 8.9375 0 L 6.890625 0 Z M 6.890625 -17.53125 "/></g></g></g><g fill="#041f60" fill-opacity="1"><g transform="translate(228.130135, 346.567213)"><g><path d="M 3.140625 -19.296875 L 5.1875 -19.296875 L 5.1875 0 L 3.140625 0 Z M 3.140625 -19.296875 "/></g></g></g><g fill="#041f60" fill-opacity="1"><g transform="translate(237.55677, 346.567213)"><g><path d="M 19.265625 -19.296875 L 19.265625 0 L 17.578125 0 L 5.1875 -15.65625 L 5.1875 0 L 3.140625 0 L 3.140625 -19.296875 L 4.828125 -19.296875 L 17.25 -3.640625 L 17.25 -19.296875 Z M 19.265625 -19.296875 "/></g></g></g><g fill="#041f60" fill-opacity="1"><g transform="translate(261.067865, 346.567213)"><g><path d="M 16.734375 -9.640625 L 18.6875 -9.640625 L 18.6875 -2.28125 C 17.789062 -1.5 16.722656 -0.894531 15.484375 -0.46875 C 14.253906 -0.0390625 12.960938 0.171875 11.609375 0.171875 C 9.671875 0.171875 7.929688 -0.25 6.390625 -1.09375 C 4.847656 -1.945312 3.632812 -3.117188 2.75 -4.609375 C 1.875 -6.109375 1.4375 -7.785156 1.4375 -9.640625 C 1.4375 -11.503906 1.875 -13.179688 2.75 -14.671875 C 3.632812 -16.171875 4.847656 -17.34375 6.390625 -18.1875 C 7.929688 -19.03125 9.675781 -19.453125 11.625 -19.453125 C 13.101562 -19.453125 14.457031 -19.21875 15.6875 -18.75 C 16.914062 -18.28125 17.953125 -17.585938 18.796875 -16.671875 L 17.53125 -15.375 C 16 -16.882812 14.0625 -17.640625 11.71875 -17.640625 C 10.15625 -17.640625 8.742188 -17.296875 7.484375 -16.609375 C 6.222656 -15.921875 5.234375 -14.960938 4.515625 -13.734375 C 3.804688 -12.515625 3.453125 -11.148438 3.453125 -9.640625 C 3.453125 -8.140625 3.804688 -6.78125 4.515625 -5.5625 C 5.234375 -4.351562 6.21875 -3.398438 7.46875 -2.703125 C 8.71875 -2.003906 10.125 -1.65625 11.6875 -1.65625 C 13.664062 -1.65625 15.347656 -2.148438 16.734375 -3.140625 Z M 16.734375 -9.640625 "/></g></g></g></svg>